PathFileType	4	(X/Y/Z)	/Users/niels/Desktop/University/Third Semester/Perception and Action/Exam/Gymnastics Motion Tracking/Code for Gym Tracking/Analyzed Data/Webcam_Backflip/id2001_3_baseline_Sports2D/id2001_3_baseline_Sports2D_px_person00.trc
DataRate	CameraRate	NumFrames	NumMarkers	Units	OrigDataRate	OrigDataStartFrame	OrigNumFrames
29.888475836431226	29.888475836431226	9	22	m	29.888475836431226	67	269
Frame#	Time	Hip			RHip			RKnee			RAnkle			RBigToe			RSmallToe			RHeel			LHip			LKnee			LAnkle			LBigToe			LSmallToe			LHeel			Neck			Head			Nose			RShoulder			RElbow			RWrist			LShoulder			LElbow			LWrist		
		X1	Y1	Z1	X2	Y2	Z2	X3	Y3	Z3	X4	Y4	Z4	X5	Y5	Z5	X6	Y6	Z6	X7	Y7	Z7	X8	Y8	Z8	X9	Y9	Z9	X10	Y10	Z10	X11	Y11	Z11	X12	Y12	Z12	X13	Y13	Z13	X14	Y14	Z14	X15	Y15	Z15	X16	Y16	Z16	X17	Y17	Z17	X18	Y18	Z18	X19	Y19	Z19	X20	Y20	Z20	X21	Y21	Z21	X22	Y22	Z22
67	2.2416666666666667	0.9891448842471297	-0.7450814357954515	0.0	0.9910715675606087	-0.7574908537631365	0.0	1.183202582568473	-1.060243375319713	0.0	1.3609119335484743	-1.1037103129193875	0.0	1.6473477830141172	-1.1882415574210339	0.0	1.66665364392689	-1.1260647173512417	0.0	1.38285460196261	-1.1127372435979024	0.0	0.9708311405595781	-0.7607744977505622	0.0	0.9705001804078923	-1.0649049763768645	0.0	1.0102174773743657	-1.0980231941958656	0.0	1.3989277446754618	-1.1993593147624633	0.0	1.338915590279308	-1.1993593147624633	0.0	1.1831387585907556	-1.111203019772242	0.0	1.0070843792423203	-0.25273424097853797	0.0	1.0635496349119733	-0.06483875064163326	0.0	1.0750417641010028	-0.1582060818872805	0.0	0.9472789445313682	-0.3019372312797601	0.0	0.962039772229337	-0.5604312969738925	0.0	1.0592602828998865	-0.7904200460672763	0.0	1.0401938909358794	-0.3282177976790186	0.0	1.0402759539100452	-0.5522889230398488	0.0	1.102832999721721	-0.7368443629053516	0.0
68	2.275124378109453	0.9806998510498252	-0.7363413193422004	0.0	0.9797689006969065	-0.7471628222999531	0.0	1.2089672439079002	-1.049371021252057	0.0	1.3598346367235927	-1.103791030317221	0.0	1.6474620492465781	-1.1880976045789495	0.0	1.6668071632647068	-1.1263269504891287	0.0	1.3830049084912606	-1.1129135074824261	0.0	0.9651162533435108	-0.7516672752209045	0.0	0.9758311433281665	-1.063781445826021	0.0	0.9812168954101583	-1.078086278169579	0.0	1.398927486412633	-1.199359396265263	0.0	1.3389149529365811	-1.199359396265263	0.0	1.1831388546347241	-1.1112028389191195	0.0	1.0036053812292876	-0.25388897579173403	0.0	1.0541295771222776	-0.06494279853330719	0.0	1.0681017488909026	-0.15819757308104765	0.0	0.9400701795503009	-0.3026634011650574	0.0	0.9671743639366301	-0.5570239585066088	0.0	1.0927851603674978	-0.768530233163955	0.0	1.0419062040114375	-0.3310654813110056	0.0	1.0465407240858793	-0.5502020016627106	0.0	1.1201241672512587	-0.7025211325017595	0.0
69	2.308582089552239	0.9743243104133099	-0.7278043309435115	0.0	0.9696182152646943	-0.7379306729466498	0.0	1.2327359465157859	-1.0312709462288832	0.0	1.3573400246387022	-1.1035089376125906	0.0	1.6474945325399815	-1.1879725661064404	0.0	1.6670663745136292	-1.1267574332193993	0.0	1.382859310981117	-1.1130762831739276	0.0	0.9655698964859416	-0.7437074686226187	0.0	0.9815156318618283	-1.0626685101921391	0.0	0.9766787477140668	-1.0647806370146713	0.0	1.3989273149582204	-1.199359457109078	0.0	1.3389145483933476	-1.199359457109078	0.0	1.183139009655126	-1.1112027097047361	0.0	1.0008246540515289	-0.25490578249752793	0.0	1.0453237232398767	-0.06499273756236013	0.0	1.0614420353170464	-0.15856849625660827	0.0	0.9331366831087916	-0.30336265966866516	0.0	0.9720507093224134	-0.5508063330032146	0.0	1.1279605053907182	-0.7374679321301624	0.0	1.0447405530497635	-0.3336278613116322	0.0	1.0541858045044792	-0.54898781880522	0.0	1.1418707478700891	-0.6627513840361343	0.0
70	2.342039800995025	0.9694424572971843	-0.7201220789320658	0.0	0.9608295215455399	-0.7297574395663659	0.0	1.253311486429722	-1.0052563120625688	0.0	1.3530425699839979	-1.1025323332071164	0.0	1.6473076668356383	-1.1879750765277977	0.0	1.6674121921325502	-1.1273141176667276	0.0	1.3820920619067576	-1.1130999884047381	0.0	0.9687238091727408	-0.7369566498562251	0.0	0.9862943484283734	-1.0618701114639015	0.0	0.9946376273918622	-1.0570431598726802	0.0	1.398927225600478	-1.1993594930078864	0.0	1.3389143491044153	-1.1993594930078864	0.0	1.1831391471933193	-1.1112026366716732	0.0	0.9991098730435883	-0.25589454170863973	0.0	1.0387076988354724	-0.06532836151105721	0.0	1.0557568240828938	-0.15962995579562303	0.0	0.9271080067435161	-0.30358845337637297	0.0	0.9754033456777281	-0.5410388917572312	0.0	1.1611632194598733	-0.697410065093298	0.0	1.048485597337027	-0.3358967846023016	0.0	1.0622825579382227	-0.5491397726641436	0.0	1.1662215591542537	-0.6278412323589447	0.0
71	2.375497512437811	0.9648192370340939	-0.7136052056943175	0.0	0.9529202348839595	-0.7222950330585761	0.0	1.270004686497233	-0.9722048361406916	0.0	1.3471867428573725	-1.100511635871284	0.0	1.646711576240591	-1.1882849295800166	0.0	1.6677417730924269	-1.1278126543488576	0.0	1.3803203797574932	-1.1127713049028254	0.0	0.9705048668084668	-0.7311806659901512	0.0	0.9891733554998374	-1.0616887553089331	0.0	1.0307555294280564	-1.0535442514210491	0.0	1.3989271942429764	-1.1993595089231002	0.0	1.3389142883171445	-1.1993595089231002	0.0	1.1831392404041228	-1.1112026065362104	0.0	0.9986138855178733	-0.2569920590688826	0.0	1.0354015932094072	-0.06601747057455727	0.0	1.0516016144497946	-0.1614515134286973	0.0	0.9224141423345475	-0.30292439138900834	0.0	0.9765034651958837	-0.5279253192813053	0.0	1.189154147900195	-0.6501663474502278	0.0	1.052751040300755	-0.3381330321704496	0.0	1.0706430350729361	-0.5508604344561439	0.0	1.1913333446196253	-0.6052643380264657	0.0
72	2.4089552238805974	0.9594181775507963	-0.7083368727104667	0.0	0.9454114791423002	-0.7155226996408158	0.0	1.2827196717419074	-0.9342702297703092	0.0	1.3413833700300124	-1.0972824496060738	0.0	1.6455137751030473	-1.1891367808750473	0.0	1.6678165959428446	-1.1278444692938765	0.0	1.3772735187840193	-1.1118038084909223	0.0	0.9684408157854286	-0.7264468016763258	0.0	0.9896467641335557	-1.062281245969131	0.0	1.079390018063212	-1.0529581022940595	0.0	1.398927195288982	-1.1993595122947938	0.0	1.3389143011052689	-1.1993595122947938	0.0	1.1831392901662678	-1.111202602240129	0.0	0.9993626288334413	-0.2583547947751988	0.0	1.035724880964226	-0.06709951281987947	0.0	1.0495016675839346	-0.16397107217641269	0.0	0.9192623217208689	-0.3012674697165184	0.0	0.9754253388505001	-0.5124791561680508	0.0	1.2096995057375783	-0.5988333588647998	0.0	1.057130474990442	-0.3408317022449124	0.0	1.0796932528099346	-0.5541547661071746	0.0	1.2157544069235684	-0.5932759381767676	0.0
73	2.442412935323383	0.9528303149822707	-0.7042184427712445	0.0	0.9381559326781747	-0.70957464710625	0.0	1.2918710831198599	-0.894383991955656	0.0	1.3388988853533486	-1.0931157471130681	0.0	1.6436412708422987	-1.1907448084894832	0.0	1.6672253678520847	-1.1267248689279492	0.0	1.3731291052320678	-1.1099211945748375	0.0	0.9621885127695584	-0.7229665664488105	0.0	0.987964826774516	-1.063496009542557	0.0	1.1345977935559919	-1.0540278553606595	0.0	1.3989272094289729	-1.1993595095787482	0.0	1.3389143408149284	-1.1993595095787482	0.0	1.1831393085658608	-1.1112026097697587	0.0	1.0013111285674896	-0.2601197799042507	0.0	1.0393075549023942	-0.06869103217895646	0.0	1.0497725504408322	-0.1670654914403853	0.0	0.9176397213273146	-0.2988556637098888	0.0	0.9728953114277044	-0.49611588122426964	0.0	1.2221726400126205	-0.5471500535852922	0.0	1.061335167133103	-0.3445697589797242	0.0	1.0895425338937845	-0.558718251367235	0.0	1.2381406943512692	-0.5857635206409567	0.0
74	2.4758706467661695	0.9451723724161335	-0.7009773867499739	0.0	0.9312151819517093	-0.7043035327231898	0.0	1.2980626662308417	-0.8557968277729063	0.0	1.3430880248956825	-1.0886693242071326	0.0	1.6413582498271544	-1.1931335902198257	0.0	1.6654070972005866	-1.123547806775189	0.0	1.3690348310851423	-1.1070522749935001	0.0	0.9524912234908718	-0.7206268055872439	0.0	0.9849875503935756	-1.064844522008082	0.0	1.190965926727048	-1.055763772652513	0.0	1.3989272251589142	-1.1993595050825203	0.0	1.3389143809233368	-1.1993595050825203	0.0	1.183139309054344	-1.1112026201494083	0.0	1.004251504681535	-0.2623173627929433	0.0	1.0454014703836354	-0.07086221100011848	0.0	1.0522675234889858	-0.17053906576495828	0.0	0.9173435404164632	-0.296087773555158	0.0	0.9698965435145381	-0.4804090108811331	0.0	1.2276689939990018	-0.49890076237202774	0.0	1.0651702109088124	-0.3495855393519716	0.0	1.0994567546113436	-0.563422414746977	0.0	1.2572697465140916	-0.5778994466395699	0.0
75	2.5093283582089554	0.9369635258361932	-0.6983006928261818	0.0	0.9248104633617211	-0.6994278501574585	0.0	1.3018233858676254	-0.821573612565806	0.0	1.3546577105912583	-1.0845340200832811	0.0	1.639310483501218	-1.1959739581712947	0.0	1.661804834469286	-1.1174632379614562	0.0	1.3671702329766564	-1.103514838771927	0.0	0.9404276569480294	-0.7190259480777409	0.0	0.9816214853651977	-1.0657347980566616	0.0	1.243738180394161	-1.0575326441374684	0.0	1.3989272373009196	-1.1993595010646076	0.0	1.3389144103742545	-1.1993595010646076	0.0	1.1831393020172893	-1.111202628904902	0.0	1.007716789938213	-0.2648295614578984	0.0	1.0529928754165365	-0.07354839179771777	0.0	1.056392187803128	-0.17413083929989417	0.0	0.9180892268388339	-0.29336434162815705	0.0	0.9672221097159704	-0.4667931522704201	0.0	1.228310785604747	-0.4572524021964485	0.0	1.0684054971539365	-0.35537359098695825	0.0	1.108266444760156	-0.5666343802154948	0.0	1.2722870968196163	-0.5666485922233169	0.0
